<?xml version="1.0"?><svg width="933" height="622" xmlns="http://www.w3.org/2000/svg">
 <g>
  <title>Layer 1</title>
  <path d="m726,234.162155l-1,0l0,1.092667l-1,0l0,0l0,1.092667l0,0l0,0l-1,0l0,0l0,1.092667l-1,0l0,0l0,1.092667l-2,0l-1,0l0,-1.092667l1,-1.092667l0,-1.092667l0,-1.092667l1,0l0,0l0,-1.092667l1,0l0,0l0,-1.092651l0,0l0,0l1,-1.092667l1,-1.092667l0,0l0,0l0,-1.092667q0,0 3,-2.185333q2,-3.277985 10,-7.648636q8,-4.370667 17,-4.370667q10,0 16,3.278q7,3.277985 15,9.833969q7,6.555984 14,16.389969q7,9.833969 10,20.760605q3,12.019318 3,24.038635q0,13.111969 -3,24.038605q-3,12.019287 -11,24.038605q-6,12.019318 -14,19.667938q-8,7.648651 -21,15.297302q-13,8.741333 -30,13.111969q-17,6.556 -37,8.741333q-19,2.185333 -44,0q-26,0 -54,-6.556q-28,-6.555969 -52,-15.297302q-24,-8.741302 -42,-19.667938q-17,-10.926636 -26,-19.667969q-10,-8.741302 -12,-9.833954q-2,-1.092682 -6,2.185303q-3,3.278015 -16,14.204651q-13,10.926636 -31,19.667938q-18,8.741333 -43,17.482635q-24,8.741302 -54,14.20462q-30,5.463348 -50,6.556q-19,1.092651 -28,-1.092651q-9,0 -28,-5.463348q-20,-5.463318 -34,-12.019287q-13,-6.556 -22,-13.111969q-9,-8.741333 -16,-18.575287q-8,-10.926636 -12,-24.038605q-4,-13.112 -5,-27.31662q-1,-13.111969 1,-21.853271q2,-7.648651 6,-18.575302q6,-10.926636 9,-14.204636q4,-4.370651 4,-5.463318q0,-1.092667 2,-2.185333q2,-1.092651 11,-6.555984q9,-5.463318 20,-5.463318q12,0 20,3.278l8,3.277985l0,1.092667l0,0l1,0l0,1.092667l0,0l1,0l0,0l0,0l1,1.092667l1,1.092667l0,0l0,0l1,0l0,0l0,1.092651l1,0l0,1.092667l0,1.092667l-2,0l-3,-1.092667l-1,0l-1,0l0,-1.092667l-1,0l0,0l0,-1.092651l-4,0q-3,-2.185333 -11,-1.092667q-8,1.092667 -14,5.463318q-5,5.463318 -9,13.111969q-4,7.648636 -4,21.853287q0,15.297302 4,20.76062q3,5.463318 8,8.741302q5,3.277985 14,3.277985q10,0 24,-6.555969q15,-6.556 38,-20.76062q24,-14.20462 47,-29.501938q24,-15.297287 41,-24.038605q18,-8.741318 30,-10.926636q13,-4.370667 29,-3.278q16,1.092667 31,5.463318q15,6.555984 26,14.204636q12,7.648651 13,8.741318q1,1.092667 12,-7.648651q11,-8.741318 26,-13.111969q15,-6.555984 22,-6.555984q7,-2.185333 25,-1.092667q18,1.092667 32,4.370651q13,3.278 32,14.204636q19,10.926651 55,37.150574q36,26.223938 49,30.594604q12,6.556 23,6.556q11,0 19,-4.370667q8,-4.370667 12,-8.741302q4,-5.463348 4,-18.575317q0,-13.111969 -4,-20.760605q-4,-7.648651 -9,-13.111969q-5,-4.370651 -9,-6.555984q-5,-2.185333 -12,-2.185333q-6,0 -10,3.278q-3,3.277985 -4,3.277985z" stroke-width="0" stroke="#010101" fill-rule="evenodd" fill="#b4d1ec" id="svg_2"/>
 </g>
</svg>