<?xml version="1.0" encoding="utf-8"?>
<!-- Generator: Adobe Illustrator 16.0.0, SVG Export Plug-In . SVG Version: 6.00 Build 0)  -->
<!DOCTYPE svg PUBLIC "-//W3C//DTD SVG 1.1//EN" "http://www.w3.org/Graphics/SVG/1.1/DTD/svg11.dtd">
<svg version="1.1" id="Layer_1" xmlns="http://www.w3.org/2000/svg" xmlns:xlink="http://www.w3.org/1999/xlink" x="0px" y="0px"
	 width="41.702px" height="46.117px" viewBox="0 0 41.702 46.117" enable-background="new 0 0 41.702 46.117" xml:space="preserve">
<g>
	<g>
		<path fill-rule="evenodd" clip-rule="evenodd" d="M9.946,43.127c-0.283,0-0.5,0-0.745,0c-1.307-7.591-2.77-15.136-4.446-22.658
			c-0.427,1.024-0.153,2.112-0.318,3.223c-0.869,0.087-1.735,0.209-2.605,0.248c-0.557,0.025-0.999-0.33-1.461-0.616
			c-0.665-0.411-0.247-0.933-0.16-1.372c0.78-3.912,1.577-7.83,3.082-11.541c0.909-2.24,2.49-4.011,4.397-5.496
			c0.833-0.648,1.922-0.593,2.806-1.167c1.599-1.038,3.31-1.896,5.093-2.598c2.04-0.803,4.106-0.955,6.25-0.429
			c0.867,0.212,1.718,0.554,2.644,0.533c0.4-0.009,0.856-0.029,0.962,0.556c0.037,0.202,0.259,0.237,0.421,0.142
			c0.481-0.282,1.027-0.464,1.399-0.918c1.228-1.497,3.777-1.345,4.881,0.287c1.337,1.977,1.05,4.027-0.902,5.396
			c-0.496,0.348-1.104,0.497-1.356,1.131C29.87,7.896,29.68,7.938,29.631,7.9c-0.641-0.483-1.188,0.067-1.688,0.251
			c-0.646,0.236-0.964,0.073-1.272-0.424c-0.153-0.248-0.264-0.556-0.48-0.723c-0.276-0.212-0.604-0.486-0.949,0.049
			c-0.122,0.188-0.492,0.352-0.867,0.344c-0.617-0.014-0.525,0.59-0.687,0.969c-0.179,0.419,0.279,0.291,0.429,0.527
			c-0.909,1.118-0.907,2.377-0.19,3.832c0.426,0.301,1.14,0.148,1.786,0.055c1.23-0.177,2.444-0.479,3.661-0.748
			c0.438-0.097,0.839-0.312,1.089-0.694c0.68-1.038,1.721-1.572,2.857-1.741c2.66-0.395,4.902-1.701,7.156-3.013
			c0.605-0.352,0.694-0.395,1.226-0.322c-0.097,0.408-0.461,0.567-0.732,0.77c-0.341,0.255-0.407,0.499-0.205,0.865
			c0.31,0.563,0.461,1.183,0.598,1.806c0.19,0.859-0.09,1.548-0.781,2.065c-0.911,0.682-1.913,1.186-3.026,1.448
			c-0.701,0.165-1.373,0.125-1.922-0.404c-0.254-0.244-0.45-0.213-0.69,0.001c-0.355,0.317-0.783,0.344-1.24,0.311
			c-1.103-0.078-2.19,0.033-3.254,0.342c-0.428,0.125-0.656,0.377-0.562,0.859c0.149,0.761-0.382,1.43-0.305,2.193
			c0.035,0.337-0.278,0.36-0.524,0.361c-2.13,0.009-4.257,0.076-6.38,0.251c-0.458,0.038-0.806-0.21-1.067-0.55
			c-0.369-0.479-0.703-0.986-1.083-1.526c-0.121,1.083,0.421,1.943,0.769,2.849c0.227,0.593,0.505,1.166,0.763,1.746
			c0.047,0.106,0.106,0.292,0.168,0.295c1.056,0.065,1.538,0.989,1.729,1.675c0.412,1.477,1.694,2.127,2.589,3.198
			c-0.789,0.507-1.473,0.189-2.116-0.082c-1.201-0.504-2.088-1.428-2.949-2.37c-0.953-1.041-0.839-0.938-1.824-0.264
			c-0.114,0.078-0.26,0.109-0.392,0.163c-0.378-0.283-0.312-1.163-1.121-0.711c-0.681-1.61-1.336-3.16-2.012-4.755
			c-0.864,0.192-1.719,0.363-2.563,0.576c-0.506,0.128-0.255,0.677-0.474,0.991c-0.186,0.267-0.626,0.623,0.039,0.917
			c0.252,0.112,0.13,0.4,0.09,0.602c-0.459,2.332,0.256,4.487,1.023,6.622c0.356,0.991,0.447,1.949,0.032,2.924
			c-0.158,0.372-0.217,0.747-0.193,1.145c0.083,1.368,0.16,2.737,0.238,4.105c0.026,0.469,0.154,0.865,0.446,1.275
			c0.848,1.19,1.578,2.533,1.396,4.003c-0.13,1.058,0.429,1.395,1.063,1.843c0.433,0.306,0.85,0.604,1.218,1.017
			c0.535,0.601,1.357,0.63,2.122,0.592c0.914-0.045,1.393,0.245,1.609,1.066c0.042,0.158,0.024,0.288-0.132,0.374
			c-0.849,0.473-1.653,1.011-2.682,1.096c-1.808,0.149-3.61,0.397-5.368-0.307c-0.198-0.079-0.382-0.171-0.607,0.137
			c-0.293,0.399-0.854,0.262-1.303,0.274c-2.159,0.059-2.191,0.017-2.142-2.127C9.951,43.686,9.946,43.445,9.946,43.127z
			 M33.538,12.41c0.593,0.401,1.083,0.354,1.585-0.147c-0.251-0.413-0.485-0.797-0.719-1.181
			C34.405,11.716,33.777,11.875,33.538,12.41z"/>
	</g>
</g>
</svg>
